<?xml version="1.0" encoding="UTF-8" standalone="no"?>
<svg
   xmlns:dc="http://purl.org/dc/elements/1.1/"
   xmlns:cc="http://creativecommons.org/ns#"
   xmlns:rdf="http://www.w3.org/1999/02/22-rdf-syntax-ns#"
   xmlns:svg="http://www.w3.org/2000/svg"
   xmlns="http://www.w3.org/2000/svg"
   xmlns:sodipodi="http://sodipodi.sourceforge.net/DTD/sodipodi-0.dtd"
   xmlns:inkscape="http://www.inkscape.org/namespaces/inkscape"
   width="2500"
   height="2500"
   viewBox="0 0 192.756 192.756"
   version="1.1"
   id="svg10"
   sodipodi:docname="Washington_State_Cougars_logo_cube.svg"
   inkscape:version="0.92.5 (2060ec1f9f, 2020-04-08)">
  <metadata
     id="metadata16">
    <rdf:RDF>
      <cc:Work
         rdf:about="">
        <dc:format>image/svg+xml</dc:format>
        <dc:type
           rdf:resource="http://purl.org/dc/dcmitype/StillImage" />
      </cc:Work>
    </rdf:RDF>
  </metadata>
  <defs
     id="defs14" />
  <sodipodi:namedview
     pagecolor="#ffffff"
     bordercolor="#666666"
     borderopacity="1"
     objecttolerance="10"
     gridtolerance="10"
     guidetolerance="10"
     inkscape:pageopacity="0"
     inkscape:pageshadow="2"
     inkscape:window-width="1920"
     inkscape:window-height="1016"
     id="namedview12"
     showgrid="false"
     inkscape:zoom="0.0944"
     inkscape:cx="-1737.2881"
     inkscape:cy="1165.2544"
     inkscape:window-x="0"
     inkscape:window-y="27"
     inkscape:window-maximized="1"
     inkscape:current-layer="svg10" />
  <g
     id="g8"
     clip-rule="evenodd"
     fill-rule="evenodd">
    <path
       d="M0 0h192.756v192.756H0V0z"
       id="path2"
       fill="#913140" />
    <path
       d="M109.695 172.848s8.104-3.452 12.529-16.845c3.908 8.164 2.885 16.551 2.885 16.551-3.58.809-15.414.294-15.414.294zM153.168 96.284s4.943 26.905-12.533 27.823c-16.871.884-24.824-24.496-24.824-24.496s4.072 49.599 27.711 46.331c26.65-3.674 9.646-49.658 9.646-49.658zM24.726 166.445c.01-.004.024-.004.037-.004 19.717-4.489 34.81-27.511 39.252-36.753l2.815-5.854 1.693 6.271c.094.343 1.925 7.245 1.925 16.372a65.74 65.74 0 0 1-.078 3.099c6.803.253 11.655-1.122 14.679-4.26 4.322-4.489 5.633-12.98 4.007-25.952-.78-6.207-3.079-16.089-5.11-24.804-1.038-4.459-2.017-8.675-2.612-11.655-3.803-19.068.914-30.897 5.542-37.461a32.013 32.013 0 0 1 2.359-2.945c-13.643 4.593-25.083 11.734-36.891 23.523l8.308 9.643 3.392-3.178c3.203 11.962.902 22.986.902 22.986-4.363-6.664-9.53-12.062-9.53-12.062l2.27-3.789-7.486-8.693-.874-.968c-9.2 12.638-12.181 22.986-12.181 22.986l6.532 5.964 3.812 3.446 1.267-3.66c7.017 13.14.607 25.425.607 25.425-1.154-4.483-5.777-11.104-5.777-11.104L45.413 107 35.7 98.201c-10.104 31.573-23.612 41.807-23.612 41.807s14.614-2.636 22.746-5.373c-.001 0-.226 16.635-10.108 31.81z"
       id="path4"
       fill="#fff" />
    <path
       d="M172.145 52.556l-23.336.985c.021 2.749-.346 5.529-1.244 8.157 2.182 9.524.678 14.699.678 14.699-3.906-9.081-6.889-11.605-6.889-11.605-21.424-9.53-33.451 12.007-32.17 25.892 1.051 11.421 5.189 26.562 8.422 50.318 2.719 19.998-7.393 28.643-19.051 30.629-.254.039-.502.09-.76.125-.062.004-.121.014-.182.02a39.355 39.355 0 0 1-6.023.288c-.069-.006-.144-.006-.213-.01-.228-.006-.465-.025-.695-.035a36.96 36.96 0 0 1-2.687-.263c-9.053-1.247-29.351-4.932-50.301-5.442 12.325-7.196 21.966-19.655 27.347-28.483a68.34 68.34 0 0 1 .574 8.714c0 1.648-.065 3.362-.219 5.12l-.208 2.408 2.405.208c9.644.84 16.494-.997 20.939-5.611 5.475-5.69 7.166-15.189 5.318-29.903-.81-6.461-3.141-16.467-5.197-25.301-1.028-4.419-1.999-8.596-2.58-11.501-3.466-17.39.671-27.945 4.752-33.737 3.203-4.544 7.614-7.861 12.45-9.455.086-.015.174-.035.26-.05l7.955-24.446h2.496l-5.352 23.493a191.31 191.31 0 0 1 3.787-.611l6.865-21.666h2.484l-4.494 20.985c7.1-.922 14.828-1.629 23.379-2.265 1.396.571 2.887 2.165 4.207 4.41l22.451-6.922.828 2.418-21.453 8.338c.17.442.328.898.482 1.361l23.469-2.92.387 2.528-22.777 4.545c.08.42.154.847.219 1.279l23.691.75-.014 2.556zm-67.588 10.487c4.707-3.303 12.703-5.838 20.205-5.264 1.912.149 3.521-.353 1.471-1.438-5.623-2.967-18.715-1.961-23.348 1.205-7.412 5.062-6.167 14.068-5.981 14.296 1.475-2.59 3.987-6.229 7.653-8.799z"
       id="path6"
       fill="#fff" />
  </g>
  <path
     style="opacity:1;fill:#911f11;fill-opacity:1;stroke-width:10.59322071"
     d="M 6.3559322,1248.9407 V 4.2372881 H 1251.0593 2495.7627 V 1248.9407 2493.6441 H 1251.0593 6.3559322 Z M 1604.686,2242.9566 c 24.1895,-6.4739 24.9844,-9.655 19.1559,-76.6562 -6.1129,-70.2699 -24.6288,-138.7922 -37.4842,-138.7183 -3.7996,0.021 -16.1478,22.5006 -27.4404,49.953 -11.2926,27.4522 -45.853,76.0557 -76.8009,108.0076 -30.9479,31.952 -56.2689,59.5262 -56.2689,61.2759 0,6.1414 153.8771,2.8184 178.8385,-3.862 z m -231.8046,-49.1826 c 52.9306,-26.1273 76.7525,-45.7842 102.9986,-84.9901 78.038,-116.5724 75.6722,-199.6961 -20.1001,-706.2415 -43.9025,-232.2024 -44.1938,-312.7748 -1.4608,-404.09294 58.6221,-125.27251 137.908,-182.23665 252.2487,-181.23164 107.2261,0.94248 130.6549,16.4432 187.134,123.80973 22.8915,43.51675 29.6713,50.0389 35.8214,34.45996 5.8591,-14.84209 1.0381,-115.9228 -7.8601,-164.79497 -0.6673,-3.66692 2.4505,-31.15732 6.9292,-61.08978 l 8.143,-54.42266 141.5691,-4.13696 c 137.725,-4.02462 174.8021,-13.31087 158.4949,-39.6964 -4.6009,-7.44436 -61.9556,-11.51623 -162.2126,-11.51623 -89.299,0 -150.8259,-3.93464 -145.0316,-9.27476 5.5349,-5.10112 68.528,-20.35517 139.9843,-33.89788 142.5744,-27.02125 156.6576,-32.21426 148.0682,-54.59795 -5.0114,-13.05966 -26.1612,-12.59095 -152.463,3.37877 -131.4775,16.62415 -165.1413,17.92505 -151.1263,5.84008 2.4277,-2.09328 62.809,-26.48548 134.1809,-54.20487 105.6048,-41.01482 129.7669,-54.32409 129.7669,-71.47992 0,-14.27771 -5.0691,-19.13582 -15.7074,-15.05355 -8.639,3.31512 -75.2919,23.68008 -148.1175,45.25548 l -132.4102,39.22799 -26.7546,-28.86876 c -23.2636,-25.10181 -32.6183,-28.14186 -71.6918,-23.29799 -24.7154,3.06393 -78.3058,8.37749 -119.0897,11.80791 -40.7839,3.43044 -89.0264,8.77486 -107.2055,11.87651 l -33.0529,5.63935 24.97,-114.79808 c 13.7334,-63.13895 27.5063,-125.52373 30.6064,-138.63284 4.2832,-18.11181 0.9651,-23.83475 -13.8193,-23.83475 -15.6538,0 -28.4151,27.94534 -65.305,143.00848 -37.0989,115.71498 -49.5982,143.00847 -65.4919,143.00847 -10.8034,0 -19.6425,-2.07975 -19.6425,-4.62168 0,-2.54193 14.3009,-64.81599 31.7797,-138.38679 37.3312,-157.13252 37.0269,-153.6017 13.2403,-153.6017 -14.5784,0 -29.2129,33.57059 -68.4968,157.12751 l -49.9574,157.12752 -42.8276,19.31258 c -54.3325,24.50054 -132.644,107.74665 -158.8318,168.84019 -57.9136,135.10695 -54.8339,259.59256 13.9086,562.21087 76.3376,336.0539 85.8602,465.628 43.382,590.2952 -20.4754,60.0916 -91.3542,129.0076 -149.2023,145.0703 -22.4585,6.2362 -75.39403,11.365 -117.63449,11.3974 l -76.80085,0.059 v -94.7138 c 0,-52.0925 -3.91708,-97.1347 -8.70462,-100.0935 -4.78754,-2.9589 -34.20225,30.2727 -65.36601,73.8479 -59.92397,83.7896 -195.79601,220.4893 -252.37277,253.9099 -18.54935,10.9575 -33.72609,23.6617 -33.72609,28.2318 0,4.57 32.1769,8.3151 71.50424,8.3221 80.88132,0.01 295.66279,23.5235 484.63979,53.0462 162.2177,25.3424 232.9178,19.9727 323.0933,-24.5393 z m -949.60775,-70.2705 c 84.74355,-40.5755 191.53832,-129.5814 265.87865,-221.5909 62.29246,-77.0982 164.64036,-240.9949 164.65356,-263.6711 0.004,-7.2828 3.95593,-13.2415 8.78156,-13.2415 14.9857,0 35.53634,106.4559 41.4103,214.5127 l 5.6145,103.2839 43.60491,-0.465 c 51.07847,-0.5445 116.22697,-21.8527 144.19177,-47.1604 54.0477,-48.9125 78.004,-168.0168 62.9879,-313.1577 -5.3848,-52.0482 -31.7694,-191.1847 -58.6323,-309.1921 -55.0944,-242.0266 -69.8437,-400.92389 -46.8246,-504.45046 13.7734,-61.94495 54.08,-151.94575 82.5023,-184.21989 23.5483,-26.73977 11.7887,-31.44327 -36.2436,-14.49647 C 990.53699,608.69838 838.54922,704.986 728.84099,805.55147 l -56.11665,51.44006 57.51462,63.55932 c 56.62518,62.5764 57.84941,63.25827 79.16308,44.09277 21.4374,-19.27675 21.7078,-18.99271 27.73338,29.13136 13.6172,108.75532 15.01429,140.69702 8.06489,184.38592 l -7.27658,45.7458 -56.59174,-71.0991 c -51.92666,-65.238 -55.48868,-73.16 -43.21064,-96.1018 14.37112,-26.8526 15.20719,-25.4246 -68.78355,-117.4855 l -31.29017,-34.29666 -30.66017,44.88988 c -35.88171,52.53478 -124.33661,228.18278 -124.33661,246.89948 0,7.0781 29.10865,39.8188 64.6859,72.7571 58.60112,54.2543 65.93975,58.173 78.01534,41.6586 11.88691,-16.2563 14.89922,-13.7293 27.83511,23.3507 17.71395,50.7762 17.56692,188.8288 -0.24735,232.2579 l -13.03577,31.7796 -14.85867,-35.1479 c -8.17226,-19.3315 -24.30026,-48.4076 -35.83999,-64.6136 -18.07714,-25.387 -19.40243,-35.1838 -9.57467,-70.777 l 11.40664,-41.3115 -61.41631,-55.8138 c -33.77897,-30.6976 -64.45509,-52.152 -68.16916,-47.6766 -3.71407,4.4753 -20.25323,43.8892 -36.75369,87.5862 -61.94659,164.0488 -142.70257,305.2571 -224.71943,392.9398 -26.73933,28.5865 -42.00596,51.9322 -33.92584,51.8795 15.24053,-0.095 231.23337,-47.8839 265.26248,-58.6843 17.46938,-5.5445 18.69401,-1.2127 12.68199,44.8597 -10.18433,78.0462 -53.63016,220.7011 -85.88623,282.0082 -15.91735,30.253 -30.55694,58.5808 -32.53242,62.9505 -7.59709,16.8046 34.88582,6.6691 97.29489,-23.2126 z m 1471.61335,-234.31 c 52.6591,-14.6235 112.4298,-68.2063 136.3154,-122.2029 41.1808,-93.0948 33.7312,-260.2946 -20.1502,-452.2563 l -18.4675,-65.7936 -5.2966,111.2288 c -4.0322,84.6773 -10.574,121.3436 -27.4045,153.6017 -31.5457,60.4616 -79.6994,90.0655 -146.3018,89.943 -107.262,-0.197 -209.1438,-88.702 -281.0354,-244.1356 -37.6242,-81.3453 -39.4969,-68.281 -11.2182,78.2559 47.0682,243.9019 130.7185,397.0285 243.5023,445.7451 44.3026,19.1362 76.3774,20.5207 130.0565,5.6139 z"
     id="path823"
     inkscape:connector-curvature="0"
     transform="scale(0.0771024)" />
  <path
     style="opacity:1;fill:none;fill-opacity:1;stroke-width:10.59322071"
     d="M 5.2965712,1248.9406 V 4.2372068 H 1250 2494.7034 V 1248.9406 2493.644 H 1250 5.2965712 Z M 1603.6267,2242.9565 c 24.1974,-6.476 24.9925,-9.6675 19.3059,-77.4972 -3.262,-38.9086 -12.6605,-87.0489 -20.8857,-106.9783 l -14.9548,-36.2353 -29.2626,57.387 c -16.0944,31.5628 -53.3042,82.8075 -82.6885,113.8771 l -53.4261,56.4901 78.3374,-0.1451 c 43.0856,-0.085 89.6941,-3.184 103.5744,-6.8988 z m -263.0721,-34.5496 c 118.5352,-45.0398 179.4784,-129.818 187.9242,-261.4215 5.6308,-87.7389 -3.7602,-160.9525 -62.3609,-486.1804 -48.1975,-267.4901 -52.6183,-356.7165 -21.7048,-438.0741 50.8361,-133.78985 142.0165,-205.50984 260.3359,-204.77306 106.6437,0.66409 131.6048,15.88464 181.2779,110.53784 40.3256,76.84152 51.4539,65.94874 43.2885,-42.37288 -3.8429,-50.97987 -3.9615,-114.73102 -0.2637,-141.66921 l 6.7235,-48.97852 142.0526,-4.81774 c 91.2483,-3.0947 146.6494,-9.41435 154.9052,-17.67021 24.4464,-24.44645 -15.9773,-32.82907 -159.1103,-32.99448 -77.1981,-0.089 -140.3601,-4.10519 -140.3601,-8.92437 0,-4.81919 32.1769,-14.62958 71.5042,-21.80087 153.4628,-27.98376 214.5127,-45.15312 214.5127,-60.32843 0,-19.18803 -44.2653,-19.07559 -190.496,0.48389 -98.6083,13.18966 -130.1403,13.74954 -115.8246,2.05657 2.4276,-1.98286 59.1328,-25.28938 126.0114,-51.79228 108.8543,-43.13711 152.8536,-70.9282 137.1526,-86.62914 -2.9319,-2.93201 -66.4349,13.52368 -141.1175,36.56818 -152.0226,46.90892 -163.3929,48.60711 -172.1775,25.715 -12.4762,-32.51243 -40.6742,-35.78807 -184.656,-21.45072 -78.1853,7.7855 -144.1228,12.30646 -146.5277,10.0466 -2.4048,-2.25987 7.9844,-62.4617 23.0873,-133.78182 15.1029,-71.32014 25.6182,-131.51448 23.3675,-133.76521 -17.6516,-17.65161 -41.1208,25.80959 -78.9771,146.25333 -36.4609,116.00388 -46.8385,138.28875 -64.3979,138.28875 -16.2864,0 -19.7038,-5.29044 -15.3959,-23.83474 3.0453,-13.10911 17.4369,-75.04023 31.9815,-137.62471 30.9164,-133.03198 31.0939,-135.15072 11.3159,-135.15072 -15.7592,0 -32.5302,39.77075 -89.3486,211.88088 -32.0719,97.14958 -34.8935,101.53556 -81.0876,126.04147 -96.2576,51.06453 -165.5033,159.54903 -187.8254,294.2584 -14.8862,89.83565 -2.2203,194.5278 54.8807,453.6243 89.4553,405.905 83.5127,560.212 -25.4425,660.6434 -54.3533,50.1011 -100.7571,64.8536 -204.24705,64.9331 l -76.80085,0.059 v -95.339 c 0,-54.4269 -4.4024,-95.3389 -10.25907,-95.3389 -5.64249,0 -30.36234,27.4099 -54.93301,60.911 -58.62586,79.9339 -171.00674,196.5549 -234.0664,242.8977 -27.67478,20.3383 -50.31779,41.3397 -50.31779,46.6698 0,5.33 29.33205,9.691 65.18235,9.691 71.52729,0 318.10079,26.4642 443.29222,47.5775 127.1331,21.4409 265.7367,19.5763 328.9021,-4.4248 z m -916.21693,-86.6158 c 87.04962,-42.8544 189.93344,-128.4665 262.32689,-218.2885 61.73392,-76.5963 166.03568,-243.1965 166.06939,-265.2612 0.0117,-7.2828 4.39219,-13.2415 9.73567,-13.2415 15.22386,0 34.3424,101.3089 40.48181,214.5127 l 5.60143,103.2839 38.3083,-0.063 c 101.14444,-0.1558 175.22494,-51.1315 201.71344,-138.8009 22.1267,-73.2326 16.2572,-230.6928 -13.9751,-374.9112 -14.6562,-69.9153 -41.6615,-198.6229 -60.0116,-286.017 -28.8516,-137.4079 -32.6931,-173.94149 -28.4033,-270.12707 5.3157,-119.18908 27.5829,-196.74611 77.684,-270.57408 14.5986,-21.51228 24.3874,-41.26876 21.7529,-43.9033 -9.8995,-9.89947 -165.15617,62.69395 -240.7672,112.57561 -43.22074,28.51332 -113.30059,81.20197 -155.73301,117.08587 l -77.14988,65.24347 54.36327,62.75231 c 29.89978,34.51823 57.09146,62.75677 60.42592,62.75677 3.33446,0 14.20815,-7.37158 24.16378,-16.38129 16.67183,-15.08781 18.5755,-13.62402 24.10875,18.53813 14.23118,82.71898 17.94807,154.52018 10.17413,196.53978 l -8.34289,45.095 -54.99176,-69.7978 c -48.52083,-61.5846 -53.65325,-72.7356 -43.61671,-94.7634 9.68381,-21.2536 6.59796,-30.9683 -20.75489,-65.33949 -17.67147,-22.20569 -43.59643,-51.06131 -57.61102,-64.1236 l -25.48108,-23.74962 -49.47015,82.01233 c -27.20858,45.10678 -62.3306,111.91618 -78.04894,148.46528 l -28.57878,66.453 36.26819,37.7523 c 58.3164,60.7027 92.8806,82.2462 109.63966,68.3374 31.12754,-25.8336 57.46366,122.0697 38.23178,214.7092 -6.85836,33.0365 -15.70698,60.0098 -19.66361,59.9406 -3.95663,-0.074 -21.91777,-27.479 -39.91362,-60.911 -28.28303,-52.5429 -31.29722,-65.4884 -22.22887,-95.4694 11.63289,-38.4598 -1.33127,-58.1557 -78.94041,-119.9317 l -38.55005,-30.6854 -34.55937,87.3541 c -57.18315,144.5388 -132.96174,284.0023 -199.87169,367.8452 -34.77142,43.571 -61.66723,80.7736 -59.76846,82.6723 3.6349,3.635 240.82158,-48.0069 267.48469,-58.2385 12.90819,-4.9534 14.24751,2.7366 7.98245,45.8326 -11.94422,82.1615 -55.14524,221.9789 -89.798,290.6257 -38.30954,75.8906 -30.22148,79.3939 69.71394,30.1959 z M 1893.8276,1889.1935 c 52.4238,-14.5582 112.4009,-68.1407 136.0075,-121.507 40.2526,-90.9963 31.7142,-292.1523 -19.0963,-449.89 l -18.7675,-58.2627 -5.5333,105.9322 c -4.1133,78.7477 -11.2031,116.8061 -27.6274,148.3051 -54.0365,103.6325 -166.5712,120.0469 -281.4133,41.0471 -43.8159,-30.1408 -115.7756,-127.6205 -148.0197,-200.5135 -11.8877,-26.8742 -23.6885,-46.7876 -26.2241,-44.2521 -8.2594,8.2594 37.6026,224.8519 64.1181,302.8106 50.7106,149.0953 120.467,242.5409 203.0195,271.964 50.2986,17.9274 71.9478,18.6925 123.5365,4.3663 z"
     id="path819"
     inkscape:connector-curvature="0"
     transform="scale(0.0771024)" />
  <path
     style="opacity:1;fill:none;fill-opacity:1;stroke-width:10.59322071"
     d="M 5.2965712,1248.9406 V 4.2372068 H 1250 2494.7034 V 1248.9406 2493.644 H 1250 5.2965712 Z M 1603.6267,2242.9565 c 24.1974,-6.476 24.9925,-9.6675 19.3059,-77.4972 -3.262,-38.9086 -12.6605,-87.0489 -20.8857,-106.9783 l -14.9548,-36.2353 -29.2626,57.387 c -16.0944,31.5628 -53.3042,82.8075 -82.6885,113.8771 l -53.4261,56.4901 78.3374,-0.1451 c 43.0856,-0.085 89.6941,-3.184 103.5744,-6.8988 z m -263.0721,-34.5496 c 118.5352,-45.0398 179.4784,-129.818 187.9242,-261.4215 5.6308,-87.7389 -3.7602,-160.9525 -62.3609,-486.1804 -48.1975,-267.4901 -52.6183,-356.7165 -21.7048,-438.0741 50.8361,-133.78985 142.0165,-205.50984 260.3359,-204.77306 106.6437,0.66409 131.6048,15.88464 181.2779,110.53784 40.3256,76.84152 51.4539,65.94874 43.2885,-42.37288 -3.8429,-50.97987 -3.9615,-114.73102 -0.2637,-141.66921 l 6.7235,-48.97852 142.0526,-4.81774 c 91.2483,-3.0947 146.6494,-9.41435 154.9052,-17.67021 24.4464,-24.44645 -15.9773,-32.82907 -159.1103,-32.99448 -77.1981,-0.089 -140.3601,-4.10519 -140.3601,-8.92437 0,-4.81919 32.1769,-14.62958 71.5042,-21.80087 153.4628,-27.98376 214.5127,-45.15312 214.5127,-60.32843 0,-19.18803 -44.2653,-19.07559 -190.496,0.48389 -98.6083,13.18966 -130.1403,13.74954 -115.8246,2.05657 2.4276,-1.98286 59.1328,-25.28938 126.0114,-51.79228 108.8543,-43.13711 152.8536,-70.9282 137.1526,-86.62914 -2.9319,-2.93201 -66.4349,13.52368 -141.1175,36.56818 -152.0226,46.90892 -163.3929,48.60711 -172.1775,25.715 -12.4762,-32.51243 -40.6742,-35.78807 -184.656,-21.45072 -78.1853,7.7855 -144.1228,12.30646 -146.5277,10.0466 -2.4048,-2.25987 7.9844,-62.4617 23.0873,-133.78182 15.1029,-71.32014 25.6182,-131.51448 23.3675,-133.76521 -17.6516,-17.65161 -41.1208,25.80959 -78.9771,146.25333 -36.4609,116.00388 -46.8385,138.28875 -64.3979,138.28875 -16.2864,0 -19.7038,-5.29044 -15.3959,-23.83474 3.0453,-13.10911 17.4369,-75.04023 31.9815,-137.62471 30.9164,-133.03198 31.0939,-135.15072 11.3159,-135.15072 -15.7592,0 -32.5302,39.77075 -89.3486,211.88088 -32.0719,97.14958 -34.8935,101.53556 -81.0876,126.04147 -96.2576,51.06453 -165.5033,159.54903 -187.8254,294.2584 -14.8862,89.83565 -2.2203,194.5278 54.8807,453.6243 89.4553,405.905 83.5127,560.212 -25.4425,660.6434 -54.3533,50.1011 -100.7571,64.8536 -204.24705,64.9331 l -76.80085,0.059 v -95.339 c 0,-54.4269 -4.4024,-95.3389 -10.25907,-95.3389 -5.64249,0 -30.36234,27.4099 -54.93301,60.911 -58.62586,79.9339 -171.00674,196.5549 -234.0664,242.8977 -27.67478,20.3383 -50.31779,41.3397 -50.31779,46.6698 0,5.33 29.33205,9.691 65.18235,9.691 71.52729,0 318.10079,26.4642 443.29222,47.5775 127.1331,21.4409 265.7367,19.5763 328.9021,-4.4248 z m -916.21693,-86.6158 c 87.04962,-42.8544 189.93344,-128.4665 262.32689,-218.2885 61.73392,-76.5963 166.03568,-243.1965 166.06939,-265.2612 0.0117,-7.2828 4.39219,-13.2415 9.73567,-13.2415 15.22386,0 34.3424,101.3089 40.48181,214.5127 l 5.60143,103.2839 38.3083,-0.063 c 101.14444,-0.1558 175.22494,-51.1315 201.71344,-138.8009 22.1267,-73.2326 16.2572,-230.6928 -13.9751,-374.9112 -14.6562,-69.9153 -41.6615,-198.6229 -60.0116,-286.017 -28.8516,-137.4079 -32.6931,-173.94149 -28.4033,-270.12707 5.3157,-119.18908 27.5829,-196.74611 77.684,-270.57408 14.5986,-21.51228 24.3874,-41.26876 21.7529,-43.9033 -9.8995,-9.89947 -165.15617,62.69395 -240.7672,112.57561 -43.22074,28.51332 -113.30059,81.20197 -155.73301,117.08587 l -77.14988,65.24347 54.36327,62.75231 c 29.89978,34.51823 57.09146,62.75677 60.42592,62.75677 3.33446,0 14.20815,-7.37158 24.16378,-16.38129 16.67183,-15.08781 18.5755,-13.62402 24.10875,18.53813 14.23118,82.71898 17.94807,154.52018 10.17413,196.53978 l -8.34289,45.095 -54.99176,-69.7978 c -48.52083,-61.5846 -53.65325,-72.7356 -43.61671,-94.7634 9.68381,-21.2536 6.59796,-30.9683 -20.75489,-65.33949 -17.67147,-22.20569 -43.59643,-51.06131 -57.61102,-64.1236 l -25.48108,-23.74962 -49.47015,82.01233 c -27.20858,45.10678 -62.3306,111.91618 -78.04894,148.46528 l -28.57878,66.453 36.26819,37.7523 c 58.3164,60.7027 92.8806,82.2462 109.63966,68.3374 31.12754,-25.8336 57.46366,122.0697 38.23178,214.7092 -6.85836,33.0365 -15.70698,60.0098 -19.66361,59.9406 -3.95663,-0.074 -21.91777,-27.479 -39.91362,-60.911 -28.28303,-52.5429 -31.29722,-65.4884 -22.22887,-95.4694 11.63289,-38.4598 -1.33127,-58.1557 -78.94041,-119.9317 l -38.55005,-30.6854 -34.55937,87.3541 c -57.18315,144.5388 -132.96174,284.0023 -199.87169,367.8452 -34.77142,43.571 -61.66723,80.7736 -59.76846,82.6723 3.6349,3.635 240.82158,-48.0069 267.48469,-58.2385 12.90819,-4.9534 14.24751,2.7366 7.98245,45.8326 -11.94422,82.1615 -55.14524,221.9789 -89.798,290.6257 -38.30954,75.8906 -30.22148,79.3939 69.71394,30.1959 z M 1893.8276,1889.1935 c 52.4238,-14.5582 112.4009,-68.1407 136.0075,-121.507 40.2526,-90.9963 31.7142,-292.1523 -19.0963,-449.89 l -18.7675,-58.2627 -5.5333,105.9322 c -4.1133,78.7477 -11.2031,116.8061 -27.6274,148.3051 -54.0365,103.6325 -166.5712,120.0469 -281.4133,41.0471 -43.8159,-30.1408 -115.7756,-127.6205 -148.0197,-200.5135 -11.8877,-26.8742 -23.6885,-46.7876 -26.2241,-44.2521 -8.2594,8.2594 37.6026,224.8519 64.1181,302.8106 50.7106,149.0953 120.467,242.5409 203.0195,271.964 50.2986,17.9274 71.9478,18.6925 123.5365,4.3663 z"
     id="path821"
     inkscape:connector-curvature="0"
     transform="scale(0.0771024)" />
  <path
     style="opacity:1;fill:#911f11;fill-opacity:1;stroke-width:10.59322071"
     d="M 5.2965712,1248.9406 V 4.2372068 H 1250 2494.7034 V 1248.9406 2493.644 H 1250 5.2965712 Z M 1603.6267,2242.9565 c 24.1974,-6.476 24.9925,-9.6675 19.3059,-77.4972 -3.262,-38.9086 -12.6605,-87.0489 -20.8857,-106.9783 l -14.9548,-36.2353 -29.2626,57.387 c -16.0944,31.5628 -53.3042,82.8075 -82.6885,113.8771 l -53.4261,56.4901 78.3374,-0.1451 c 43.0856,-0.085 89.6941,-3.184 103.5744,-6.8988 z m -263.0721,-34.5496 c 118.5352,-45.0398 179.4784,-129.818 187.9242,-261.4215 5.6308,-87.7389 -3.7602,-160.9525 -62.3609,-486.1804 -48.1975,-267.4901 -52.6183,-356.7165 -21.7048,-438.0741 50.8361,-133.78985 142.0165,-205.50984 260.3359,-204.77306 106.6437,0.66409 131.6048,15.88464 181.2779,110.53784 40.3256,76.84152 51.4539,65.94874 43.2885,-42.37288 -3.8429,-50.97987 -3.9615,-114.73102 -0.2637,-141.66921 l 6.7235,-48.97852 142.0526,-4.81774 c 91.2483,-3.0947 146.6494,-9.41435 154.9052,-17.67021 24.4464,-24.44645 -15.9773,-32.82907 -159.1103,-32.99448 -77.1981,-0.089 -140.3601,-4.10519 -140.3601,-8.92437 0,-4.81919 32.1769,-14.62958 71.5042,-21.80087 153.4628,-27.98376 214.5127,-45.15312 214.5127,-60.32843 0,-19.18803 -44.2653,-19.07559 -190.496,0.48389 -98.6083,13.18966 -130.1403,13.74954 -115.8246,2.05657 2.4276,-1.98286 59.1328,-25.28938 126.0114,-51.79228 108.8543,-43.13711 152.8536,-70.9282 137.1526,-86.62914 -2.9319,-2.93201 -66.4349,13.52368 -141.1175,36.56818 -152.0226,46.90892 -163.3929,48.60711 -172.1775,25.715 -12.4762,-32.51243 -40.6742,-35.78807 -184.656,-21.45072 -78.1853,7.7855 -144.1228,12.30646 -146.5277,10.0466 -2.4048,-2.25987 7.9844,-62.4617 23.0873,-133.78182 15.1029,-71.32014 25.6182,-131.51448 23.3675,-133.76521 -17.6516,-17.65161 -41.1208,25.80959 -78.9771,146.25333 -36.4609,116.00388 -46.8385,138.28875 -64.3979,138.28875 -16.2864,0 -19.7038,-5.29044 -15.3959,-23.83474 3.0453,-13.10911 17.4369,-75.04023 31.9815,-137.62471 30.9164,-133.03198 31.0939,-135.15072 11.3159,-135.15072 -15.7592,0 -32.5302,39.77075 -89.3486,211.88088 -32.0719,97.14958 -34.8935,101.53556 -81.0876,126.04147 -96.2576,51.06453 -165.5033,159.54903 -187.8254,294.2584 -14.8862,89.83565 -2.2203,194.5278 54.8807,453.6243 89.4553,405.905 83.5127,560.212 -25.4425,660.6434 -54.3533,50.1011 -100.7571,64.8536 -204.24705,64.9331 l -76.80085,0.059 v -95.339 c 0,-54.4269 -4.4024,-95.3389 -10.25907,-95.3389 -5.64249,0 -30.36234,27.4099 -54.93301,60.911 -58.62586,79.9339 -171.00674,196.5549 -234.0664,242.8977 -27.67478,20.3383 -50.31779,41.3397 -50.31779,46.6698 0,5.33 29.33205,9.691 65.18235,9.691 71.52729,0 318.10079,26.4642 443.29222,47.5775 127.1331,21.4409 265.7367,19.5763 328.9021,-4.4248 z m -916.21693,-86.6158 c 87.04962,-42.8544 189.93344,-128.4665 262.32689,-218.2885 61.73392,-76.5963 166.03568,-243.1965 166.06939,-265.2612 0.0117,-7.2828 4.39219,-13.2415 9.73567,-13.2415 15.22386,0 34.3424,101.3089 40.48181,214.5127 l 5.60143,103.2839 38.3083,-0.063 c 101.14444,-0.1558 175.22494,-51.1315 201.71344,-138.8009 22.1267,-73.2326 16.2572,-230.6928 -13.9751,-374.9112 -14.6562,-69.9153 -41.6615,-198.6229 -60.0116,-286.017 -28.8516,-137.4079 -32.6931,-173.94149 -28.4033,-270.12707 5.3157,-119.18908 27.5829,-196.74611 77.684,-270.57408 14.5986,-21.51228 24.3874,-41.26876 21.7529,-43.9033 -9.8995,-9.89947 -165.15617,62.69395 -240.7672,112.57561 -43.22074,28.51332 -113.30059,81.20197 -155.73301,117.08587 l -77.14988,65.24347 54.36327,62.75231 c 29.89978,34.51823 57.09146,62.75677 60.42592,62.75677 3.33446,0 14.20815,-7.37158 24.16378,-16.38129 16.67183,-15.08781 18.5755,-13.62402 24.10875,18.53813 14.23118,82.71898 17.94807,154.52018 10.17413,196.53978 l -8.34289,45.095 -54.99176,-69.7978 c -48.52083,-61.5846 -53.65325,-72.7356 -43.61671,-94.7634 9.68381,-21.2536 6.59796,-30.9683 -20.75489,-65.33949 -17.67147,-22.20569 -43.59643,-51.06131 -57.61102,-64.1236 l -25.48108,-23.74962 -49.47015,82.01233 c -27.20858,45.10678 -62.3306,111.91618 -78.04894,148.46528 l -28.57878,66.453 36.26819,37.7523 c 58.3164,60.7027 92.8806,82.2462 109.63966,68.3374 31.12754,-25.8336 57.46366,122.0697 38.23178,214.7092 -6.85836,33.0365 -15.70698,60.0098 -19.66361,59.9406 -3.95663,-0.074 -21.91777,-27.479 -39.91362,-60.911 -28.28303,-52.5429 -31.29722,-65.4884 -22.22887,-95.4694 11.63289,-38.4598 -1.33127,-58.1557 -78.94041,-119.9317 l -38.55005,-30.6854 -34.55937,87.3541 c -57.18315,144.5388 -132.96174,284.0023 -199.87169,367.8452 -34.77142,43.571 -61.66723,80.7736 -59.76846,82.6723 3.6349,3.635 240.82158,-48.0069 267.48469,-58.2385 12.90819,-4.9534 14.24751,2.7366 7.98245,45.8326 -11.94422,82.1615 -55.14524,221.9789 -89.798,290.6257 -38.30954,75.8906 -30.22148,79.3939 69.71394,30.1959 z M 1893.8276,1889.1935 c 52.4238,-14.5582 112.4009,-68.1407 136.0075,-121.507 40.2526,-90.9963 31.7142,-292.1523 -19.0963,-449.89 l -18.7675,-58.2627 -5.5333,105.9322 c -4.1133,78.7477 -11.2031,116.8061 -27.6274,148.3051 -54.0365,103.6325 -166.5712,120.0469 -281.4133,41.0471 -43.8159,-30.1408 -115.7756,-127.6205 -148.0197,-200.5135 -11.8877,-26.8742 -23.6885,-46.7876 -26.2241,-44.2521 -8.2594,8.2594 37.6026,224.8519 64.1181,302.8106 50.7106,149.0953 120.467,242.5409 203.0195,271.964 50.2986,17.9274 71.9478,18.6925 123.5365,4.3663 z"
     id="path824"
     inkscape:connector-curvature="0"
     transform="scale(0.0771024)" />
  <path
     style="opacity:1;fill:#911f11;fill-opacity:1;stroke-width:10.59322071"
     d="M 5.2965712,1248.9406 V 4.2372068 H 1250 2494.7034 V 1248.9406 2493.644 H 1250 5.2965712 Z M 1586.3347,2243.2007 c 37.4185,-6.1849 39.7149,-8.7917 39.5591,-44.9046 -0.1716,-39.7419 -24.6305,-156.7079 -34.9214,-166.9988 -3.2238,-3.224 -18.5005,19.0801 -33.9481,49.5644 -15.4475,30.4844 -49.1367,77.9305 -74.8647,105.4358 -25.7281,27.5054 -46.7783,53.0906 -46.7783,56.856 0,8.6761 98.5628,8.7068 150.9534,0.042 z m -224.0326,-44.6459 c 139.0811,-67.2251 188.5188,-193.5696 158.7434,-405.6888 -6.8262,-48.6293 -28.8611,-179.617 -48.9665,-291.0839 -61.6125,-341.5866 -63.1238,-418.5573 -10.2665,-522.86623 53.1975,-104.9802 135.0598,-160.84551 237.1039,-161.8067 101.1925,-0.95318 132.8447,15.66271 180.0792,94.53268 25.4083,42.4254 44.2503,64.21566 48.951,56.61 4.2031,-6.80092 4.3122,-47.90141 0.2426,-91.33443 -4.0701,-43.43301 -4.2451,-101.90885 -0.3888,-129.9463 l 7.0111,-50.97719 143.9651,-6.50736 c 79.1807,-3.57906 148.7293,-11.27175 154.5525,-17.09488 20.1934,-20.194 -45.7566,-32.56126 -173.6374,-32.56126 -69.5359,0 -126.429,-3.80739 -126.429,-8.46087 0,-4.65348 53.6015,-19.51526 119.1144,-33.02619 147.4356,-30.40608 174.4703,-39.92817 158.5535,-55.84505 -8.6699,-8.66992 -49.1606,-7.40021 -152.6784,4.7877 -124.2836,14.63281 -160.7728,15.79077 -145.2932,4.61078 2.4276,-1.75332 61.2505,-26.77981 130.7174,-55.6144 69.4671,-28.8346 128.4695,-59.01542 131.1166,-67.06848 6.384,-19.42143 -24.5371,-13.95208 -175.2269,30.99435 l -119.0781,35.51752 -21.6948,-23.28667 c -25.0698,-26.90935 -82.2471,-30.07477 -232.0868,-12.84868 -49.1673,5.65244 -91.5676,8.10482 -94.2228,5.44971 -2.655,-2.65511 5.3996,-56.17725 17.8994,-118.93809 27.6223,-138.69135 28.6785,-158.73431 7.4356,-141.1043 -8.4009,6.97221 -35.014,71.90972 -59.14,144.30556 -35.7972,107.41768 -47.6011,131.6288 -64.1746,131.6288 -11.17,0 -20.3091,-1.44425 -20.3091,-3.20944 0,-1.76519 14.5627,-66.65161 32.3616,-144.19204 17.7989,-77.54044 29.6028,-143.74146 26.2309,-147.1134 -14.8435,-14.84338 -39.5849,34.0867 -83.8515,165.8295 -26.1391,77.79296 -49.0251,142.31995 -50.8579,143.39331 -230.488,134.98693 -279.32,298.06037 -200.1975,668.55475 76.4369,357.9196 78.2523,369.3171 79.302,497.8814 1.2558,153.8196 -14.7218,205.4069 -83.1558,268.4872 -54.5757,50.306 -100.8891,65.0605 -204.47165,65.1401 l -76.80085,0.059 v -89.4171 c 0,-49.1795 -4.17222,-91.9958 -9.27158,-95.1474 -5.09936,-3.1516 -35.68085,28.744 -67.95885,70.879 -61.22604,79.9233 -193.11271,213.0963 -243.12353,245.4949 -15.97223,10.3472 -26.87125,22.3229 -24.22008,26.6127 2.65119,4.2896 63.38886,11.2155 134.97261,15.3907 71.58375,4.1753 204.03999,18.873 294.34719,32.6617 209.71204,32.0202 353.51654,30.7737 424.80214,-3.6823 z m -921.50248,-88.1623 c 89.17316,-46.9116 191.49519,-137.0995 262.59076,-231.4503 66.39235,-88.1093 131.38583,-192.8003 143.6169,-231.3371 20.30327,-63.9699 47.53917,27.3333 56.05956,187.929 l 5.83065,109.8986 55.32238,-5.7098 c 78.79993,-8.1329 132.60263,-38.9043 164.04123,-93.8203 24.8336,-43.3785 26.3479,-54.9137 25.5224,-194.4196 -0.8082,-136.6496 -4.8693,-166.2046 -51.671,-376.0594 -79.8548,-358.06105 -77.6045,-493.91995 10.8461,-654.83621 35.0775,-63.81547 35.7002,-66.71425 12.8035,-59.59889 -40.0014,12.43083 -190.40369,90.07029 -241.22824,124.52491 -77.27234,52.38393 -201.29871,157.47354 -200.93403,170.25474 0.18549,6.49908 23.5645,37.99422 51.95346,69.98917 50.48984,56.90314 52.07885,57.75404 72.81243,38.99042 20.68389,-18.71867 21.33486,-18.46048 26.9351,10.68326 14.59354,75.945 18.81591,145.6426 11.87884,196.0812 l -7.56261,54.9868 -30.35921,-36.4487 c -70.62476,-84.7907 -85.93923,-112.9614 -73.77036,-135.6991 9.791,-18.2947 4.63342,-29.9984 -34.22783,-77.67047 -25.16575,-30.87148 -52.40413,-56.12996 -60.52972,-56.12996 -16.6489,0 -87.03678,114.50063 -132.05589,214.81653 l -29.8344,66.48 25.41067,27.2491 c 54.42417,58.3619 104.60487,91.5058 119.64433,79.0243 11.23892,-9.3276 17.39365,-4.4801 28.88046,22.7459 23.94232,56.7478 16.47371,251.7604 -9.64196,251.7604 -4.37042,0 -22.70921,-27.4099 -40.75286,-60.911 -28.55734,-53.0215 -31.48149,-65.7133 -22.57589,-97.9873 9.93104,-35.9901 8.5841,-38.5547 -45.97963,-87.5473 -30.91571,-27.759 -60.51005,-49.0378 -65.76521,-47.2861 -5.25516,1.7518 -24.96567,41.1481 -43.80112,87.5473 -67.49683,166.2718 -134.57383,283.4774 -226.94607,396.5496 -33.93949,41.545 -34.47272,43.4573 -10.59323,37.9889 13.82988,-3.1671 68.04778,-15.2618 120.48422,-26.8772 52.43644,-11.6152 106.06462,-24.1197 119.17373,-27.7876 28.88159,-8.0808 29.52888,-0.5635 8.4728,98.3936 -18.20918,85.5779 -47.59193,172.9116 -78.67064,233.831 -39.61235,77.6466 -27.42252,80.7944 84.62038,21.8516 z M 1884.9204,1888.8948 c 130.2715,-32.8027 187.369,-161.2124 163.8395,-368.468 -9.7055,-85.4894 -33.3437,-198.1471 -49.1847,-234.4099 -3.8177,-8.7394 -9.8213,32.1054 -13.3413,90.7662 -4.735,78.9062 -11.9186,116.1047 -27.6101,142.9724 -50.6395,86.7068 -151.0972,109.1949 -249.2202,55.7897 -60.4852,-32.9202 -108.5682,-88.1087 -162.9294,-187.0067 -21.3865,-38.9081 -40.1431,-70.742 -41.6812,-70.742 -5.9114,0 26.1793,164.5011 46.6386,239.0762 55.3276,201.6703 160.8612,333.6448 273.8563,342.4695 7.616,0.5953 34.4506,-4.1066 59.6325,-10.4474 z"
     id="path826"
     inkscape:connector-curvature="0"
     transform="scale(0.0771024)" />
  <path
     style="opacity:1;fill:#911f11;fill-opacity:1;stroke-width:10.59322071"
     d="M 5.2965712,1248.9406 V 4.2372068 H 1250 2494.7034 V 1248.9406 2493.644 H 1250 5.2965712 Z M 1615.9936,2233.784 c 20.9018,-12.918 -7.9055,-196.2767 -30.6952,-195.3752 -3.7997,0.1504 -15.6888,19.3133 -26.4202,42.5843 -10.7313,23.271 -42.9082,67.9107 -71.5042,99.1993 -28.596,31.2886 -51.9927,60.4763 -51.9927,64.8615 0,9.7256 163.1088,-0.4523 180.6123,-11.2699 z m -257.014,-36.767 c 66.5872,-28.6756 130.7204,-96.859 149.2371,-158.6623 33.3957,-111.4648 30.2894,-153.1931 -41.9945,-564.1455 -53.3165,-303.1178 -55.3181,-385.2478 -11.6628,-478.53725 35.3661,-75.5755 93.3097,-138.76038 149.2002,-162.69592 47.0907,-20.16697 155.626,-21.83562 200.8856,-3.08847 22.2805,9.22887 46.6483,34.97806 72.0541,76.13877 21.1136,34.20666 42.7264,62.19393 48.0284,62.19393 5.5991,0 6.6148,-37.28532 2.4233,-88.94337 -3.9692,-48.91885 -4.0312,-110.18615 -0.1377,-136.14955 l 7.0789,-47.20618 139.9448,-7.38801 c 129.6273,-6.84333 170.7423,-16.14093 152.4164,-34.46688 -4.0171,-4.01703 -71.6283,-9.48528 -150.2473,-12.15165 -78.6189,-2.66638 -142.9434,-8.22199 -142.9434,-12.34582 0,-4.12383 53.6282,-18.49621 119.1737,-31.93863 146.2891,-30.0017 174.118,-39.50806 159.2323,-54.39373 -10.2089,-10.20893 -121.8133,-2.32689 -259.8679,18.35311 -68.3454,10.23786 -43.652,-11.96447 58.2627,-52.38509 111.0621,-44.0486 178.9018,-82.16755 158.6299,-89.13368 -7.4305,-2.55337 -70.3067,12.47935 -139.7249,33.40603 -69.4182,20.9267 -132.9124,38.04853 -141.0982,38.04853 -8.1858,0 -23.5113,-9.5339 -34.0568,-21.18644 -22.3906,-24.74133 -73.8277,-27.11775 -221.2924,-10.22381 -51.7955,5.93383 -96.9474,8.01509 -100.3375,4.62503 -3.39,-3.39006 4.4333,-57.14536 17.3853,-119.45622 12.9519,-62.31085 23.5435,-122.2183 23.5367,-133.12768 -0.032,-46.61261 -30.8232,10.32516 -73.7442,136.3515 -36.4148,106.92281 -48.9578,132.4244 -65.1333,132.4244 -11.0182,0 -20.0332,-2.23167 -20.0332,-4.95928 0,-2.7276 14.1295,-68.04721 31.3989,-145.15469 17.2695,-77.10747 28.7972,-142.79732 25.617,-145.97745 -12.4831,-12.48305 -37.5194,40.83214 -80.732,171.91945 -43.8559,133.03874 -46.4117,137.67964 -89.8531,163.15864 -24.5924,14.42372 -68.5766,52.3351 -97.7427,84.24752 -107.2902,117.39264 -122.7775,271.18474 -58.53,581.21499 20.5255,99.0466 45.1787,218.2203 54.7852,264.8305 22.1454,107.4483 24.7324,322.9859 4.5621,380.0923 -19.1698,54.2738 -81.0737,121.6886 -133.7851,145.6952 -29.8514,13.5953 -68.1984,19.3668 -129.76693,19.5307 l -87.39407,0.2326 v -84.1205 c 0,-46.2663 -4.45546,-86.8743 -9.90101,-90.2397 -5.44555,-3.3656 -28.08856,16.4991 -50.31779,44.1437 -65.38172,81.3096 -204.12999,222.3403 -250.04888,254.1621 l -42.51469,29.4627 30.7344,7.2136 c 16.90392,3.9673 97.4717,12.6363 179.03949,19.2644 81.5678,6.6279 207.89195,21.1199 280.72034,32.2043 169.40064,25.7826 291.84144,22.1822 368.51354,-10.8362 z m -914.06438,-88.4248 c 120.97409,-62.947 311.27433,-276.1436 388.65544,-435.4172 12.8729,-26.4963 26.65642,-48.1751 30.63005,-48.1751 13.71437,0 33.28498,100.9654 40.04005,206.5678 l 6.77615,105.9322 42.37288,-0.7754 c 62.27751,-1.1395 95.04811,-11.7807 131.97921,-42.8563 61.803,-52.0037 69.4295,-78.6428 67.8766,-237.0887 -1.2554,-128.0923 -7.0554,-170.0488 -55.6075,-402.2559 -74.2624,-355.17003 -73.3541,-465.72799 5.0499,-614.69317 16.8659,-32.04449 32.2815,-61.83793 34.2569,-66.20763 16.0325,-35.46354 -190.2235,65.45522 -293.78537,143.7459 -78.90856,59.65327 -159.89686,130.70428 -159.89686,140.27748 0,3.30356 20.25954,29.53185 45.02119,58.28507 44.21279,51.3399 73.32596,64.45847 88.5134,39.88468 20.58403,-33.30566 45.47861,180.00457 27.97398,239.69607 l -9.1838,31.3173 -54.2164,-71.6183 c -45.20007,-59.7079 -53.39841,-77.2478 -49.29772,-105.4697 4.16107,-28.6376 -2.45008,-42.0097 -42.92252,-86.81765 l -47.84119,-52.9661 -21.27807,26.48305 c -11.70295,14.56567 -48.74126,80.6608 -82.30737,146.8781 l -61.02929,120.395 58.26271,52.4138 c 41.46836,37.3053 64.95238,51.1521 81.4704,48.0369 17.88903,-3.3736 26.38606,3.1494 37.07627,28.4625 23.35495,55.3017 15.27799,250.0001 -10.37112,250.0001 -4.37042,0 -22.73169,-27.4099 -40.80281,-60.911 -26.39039,-48.9237 -31.13688,-66.96 -24.11829,-91.6482 4.87073,-17.1329 4.5097,-38.6382 -0.81568,-48.5889 -9.22319,-17.2336 -98.90666,-95.462 -109.44067,-95.462 -2.84546,0 -20.44202,36.9438 -39.10344,82.0974 -56.86808,137.5993 -133.96915,279.3138 -196.43906,361.062 -32.6542,42.7312 -57.78665,79.0595 -55.84988,80.7293 1.93677,1.6698 60.72479,-10.3882 130.64004,-26.7956 69.91526,-16.4075 130.69386,-30.0927 135.06356,-30.4116 24.85353,-1.8138 -20.03453,188.0144 -72.91203,308.3397 -19.61766,44.6408 -35.66848,84.2895 -35.66848,88.1079 0,10.819 41.75879,-4.4063 111.22882,-40.5538 z m 1493.21008,-243.826 c 25.6785,-13.8409 54.4286,-42.8189 74.1525,-74.7406 31.5897,-51.1257 32.2137,-54.8187 32.2137,-190.678 0,-97.2409 -5.7985,-163.2714 -19.4505,-221.4932 -10.6978,-45.6228 -21.659,-80.7422 -24.3583,-78.0429 -2.6993,2.6992 -9.177,46.2884 -14.3952,96.8649 -14.9548,144.9484 -67.2302,207.2336 -173.7651,207.0377 -101.7502,-0.1875 -189.4214,-70.8278 -267.3671,-215.4302 -41.797,-77.54 -45.2276,-60.1968 -14.8914,75.2816 46.9546,209.694 113.8588,343.4529 197.7116,395.2768 74.1846,45.8485 133.0027,47.5066 210.1498,5.9239 z"
     id="path828"
     inkscape:connector-curvature="0"
     transform="scale(0.0771024)" />
  <path
     style="opacity:1;fill:#911f11;fill-opacity:1;stroke-width:10.59322071"
     d="M 5.2965712,1248.9406 V 4.2372068 H 1250 2494.7034 V 1248.9406 2493.644 H 1250 5.2965712 Z M 1619.7471,2228.6687 c 10.1828,-10.0753 -9.0083,-150.1527 -24.3199,-177.5131 -6.5652,-11.7313 -16.8669,-1.5217 -41.6862,41.3134 -18.1315,31.2924 -49.7962,74.4532 -70.3664,95.9128 -56.4575,58.8989 -51.0824,65.7717 44.6974,57.1519 45.1536,-4.0637 86.4074,-11.653 91.6751,-16.865 z m -263.8535,-30.5264 c 65.1161,-28.804 116.2828,-79.1248 143.7684,-141.3915 38.3651,-86.9133 32.8082,-199.7013 -26.7514,-542.9797 -60.531,-348.8763 -63.2132,-422.3283 -18.8703,-516.76604 60.3084,-128.43993 133.5262,-181.06234 251.9266,-181.06234 92.1534,0 124.1013,16.62863 170.945,88.97574 21.9457,33.89356 43.4392,59.43802 47.7635,56.76547 4.3242,-2.67253 4.9915,-42.08634 1.4828,-87.58623 -3.5088,-45.49989 -3.1435,-104.30567 0.8115,-130.67951 l 7.1909,-47.95243 135.374,-7.48695 c 126.8898,-7.01773 174.1096,-16.72161 158.2999,-32.53137 -3.6968,-3.69677 -71.4877,-9.43691 -150.6466,-12.75586 -79.1589,-3.31895 -143.9252,-9.23493 -143.9252,-13.14663 0,-3.91169 61.9703,-20.55322 137.7118,-36.98118 127.8782,-27.73613 152.3641,-37.7664 128.3804,-52.58915 -5.1324,-3.17196 -70.237,1.35731 -144.677,10.06503 -119.9074,14.02632 -156.5222,14.31254 -141.7189,1.10782 2.4276,-2.16545 58.0351,-26.44418 123.5722,-53.95272 110.6678,-46.45174 139.1788,-63.36335 127.1322,-75.40992 -2.6243,-2.62439 -62.4622,11.99361 -132.9729,32.48444 -70.5107,20.49084 -133.3876,37.25607 -139.7266,37.25607 -6.3388,0 -25.7125,-10.48908 -43.0524,-23.30905 -30.9507,-22.88286 -34.0757,-23.07809 -170.9122,-10.67731 -76.6617,6.94745 -141.8875,10.12931 -144.9459,7.0708 -3.0586,-3.05852 5.1944,-60.74826 18.34,-128.19945 22.6656,-116.29901 23.035,-154.78859 1.1518,-120.00194 -5.3915,8.57068 -29.6162,71.59471 -53.8327,140.05339 -34.8884,98.62778 -48.1291,124.47034 -63.7738,124.47034 -24.3035,0 -24.8697,10.85257 6.7392,-129.17294 14.5657,-64.5251 26.3315,-129.78684 26.1462,-145.02609 -0.3093,-25.43293 -1.5034,-26.17052 -14.545,-8.98414 -7.8144,10.29799 -35.0728,81.15352 -60.5742,157.45673 l -46.366,138.73312 -52.9661,34.06639 c -67.8807,43.6591 -117.8455,100.95189 -152.5306,174.90118 -25.3217,53.98659 -27.529,69.90325 -27.2441,196.45796 0.2786,123.73337 5.5528,162.44297 51.9611,381.35597 45.1542,212.9977 51.7774,260.2996 52.656,376.0593 1.1585,152.6292 -9.5717,194.1544 -66.481,257.2776 -55.7259,61.8105 -105.8268,81.1939 -210.58593,81.4728 l -87.39407,0.2326 -0.16218,-76.8008 c -0.24354,-115.3236 -7.84586,-117.7461 -82.5628,-26.3077 -35.43564,43.3659 -107.85423,119.7264 -160.9302,169.6899 l -96.50177,90.8428 45.60815,5.614 c 25.08449,3.0877 81.36027,8.3346 125.0573,11.6598 65.60382,4.9923 295.40619,32.8047 429.0254,51.9239 61.5197,8.8026 200.0718,-4.9852 243.6055,-24.2422 z M 506.91672,2066.1248 c 113.62704,-81.0825 267.91823,-268.2131 330.95888,-401.4003 29.61108,-62.5599 36.03105,-55.738 56.66089,60.2083 6.1511,34.571 11.24891,87.0075 11.32846,116.5254 0.0794,29.5179 3.10041,64.7058 6.71302,78.1954 5.92672,22.1305 10.82817,23.8692 50.17316,17.7977 72.61977,-11.2064 107.62227,-25.5154 136.52257,-55.8107 44.8672,-47.0327 52.6538,-81.8192 51.5184,-230.1576 -0.876,-114.4781 -7.4329,-168.0946 -38.8635,-317.7966 -64.9027,-309.1266 -70.8964,-351.9715 -66.1453,-472.82549 4.164,-105.91701 7.0484,-118.11521 48.2203,-203.91949 27.1721,-56.62833 38.7722,-91.26354 30.5661,-91.26354 -7.2739,0 -54.0326,20.4803 -103.9083,45.51177 -102.38189,51.38307 -240.14772,147.10101 -300.12407,208.52236 l -40.15949,41.12704 53.91962,56.33891 c 47.46621,49.59594 56.38432,54.82424 74.51272,43.68348 17.69138,-10.87217 21.49752,-9.3795 27.01155,10.59322 21.79827,78.95684 18.86049,259.99174 -3.98989,245.86954 -5.09227,-3.1473 -30.90089,-34.5127 -57.35249,-69.7012 -37.95139,-50.4864 -46.87937,-70.0512 -42.33508,-92.7726 4.54216,-22.7108 -3.56012,-40.4977 -38.35239,-84.19498 -24.26112,-30.4707 -47.28084,-55.25147 -51.15492,-55.06837 -11.91485,0.56313 -40.38474,45.07322 -95.30826,149.00585 -75.75296,143.3487 -75.37942,136.8908 -11.03415,190.7637 31.40751,26.2959 66.70484,46.4834 82.41409,47.135 23.67857,0.9819 29.39027,8.3437 41.31002,53.2435 19.35692,72.9143 6.74873,226.8919 -18.57866,226.8919 -4.27696,0 -21.26029,-24.7745 -37.74075,-55.0545 -22.5665,-41.4621 -29.40561,-67.3018 -27.70097,-104.6604 2.1957,-48.1205 0.59237,-50.9362 -53.55225,-94.0468 l -55.81572,-44.4412 -13.2385,29.9277 c -7.28117,16.4603 -33.02263,74.7836 -57.20327,129.6075 -53.23898,120.7068 -100.12133,202.0154 -168.80143,292.7544 -34.45392,45.5199 -46.37019,68.371 -35.65388,68.371 8.85275,0 69.0147,-11.9457 133.6932,-26.546 64.67852,-14.6003 120.24094,-23.9024 123.47203,-20.6714 3.2311,3.2311 -2.60265,47.3538 -12.96388,98.0503 -15.53131,75.9932 -42.05824,152.604 -99.01372,285.9554 -10.29694,24.1085 97.15797,-23.7721 169.99586,-75.7482 z M 1915.0648,1875.4236 c 40.4091,-17.0783 87.9706,-62.9215 110.5196,-106.5264 33.8052,-65.3721 26.933,-315.8464 -11.7021,-426.5152 l -14.1303,-40.4753 -7.2032,58.2627 c -14.4747,117.0769 -18.557,134.8097 -38.6366,167.8278 -29.9493,49.2477 -79.8393,75.748 -142.4716,75.6773 -99.7333,-0.1123 -200.0961,-82.5664 -270.6067,-222.3186 -13.2282,-26.2183 -25.9355,-42.1427 -28.2385,-35.3877 -6.0727,17.8118 43.9033,231.429 70.8893,303.0098 32.3874,85.9077 94.6049,174.0523 148.3206,210.1282 51.8987,34.8556 124.1706,41.2906 183.2595,16.3174 z"
     id="path830"
     inkscape:connector-curvature="0"
     transform="scale(0.0771024)" />
  <path
     style="opacity:1;fill:#660014;fill-opacity:1;stroke-width:10.59322071"
     d="M 5.2965712,1248.9406 V 4.2372068 H 1250 2494.7034 V 1248.9406 2493.644 H 1250 5.2965712 Z M 1617.3702,2225.2493 c 3.9604,-6.1423 4.383,-35.263 0.9396,-64.7128 -13.1486,-112.4406 -30.0954,-135.2474 -57.6445,-77.5772 -9.0973,19.0439 -38.4119,61.4531 -65.1436,94.2426 -26.7317,32.7897 -45.4459,62.7745 -41.5872,66.6333 10.6342,10.6342 155.1953,-5.8052 163.4361,-18.5859 z m -274.5107,-24.1041 c 137.2572,-47.7688 195.9538,-172.3975 175.8314,-373.3377 -9.0542,-90.4131 -13.3507,-117.8423 -67.4424,-430.5618 -15.1168,-87.3941 -27.6683,-198.3014 -27.8924,-246.4607 -0.3496,-75.2092 3.9672,-96.8793 30.6007,-153.60174 59.9888,-127.7602 132.8243,-180.52053 250.8813,-181.73238 89.8723,-0.92256 125.2771,17.07998 172.566,87.7458 l 39.9687,59.72697 5.2967,-128.90805 c 2.9131,-70.89944 7.68,-131.03373 10.5932,-133.63177 2.9131,-2.59804 68.3377,-9.21945 145.3878,-14.71424 128.1134,-9.13635 163.3209,-16.08532 149.8331,-29.57298 -2.7061,-2.70614 -70.2379,-8.19827 -150.0706,-12.20473 -79.8326,-4.00646 -145.1503,-10.70486 -145.1503,-14.88532 0,-4.18047 51.2447,-18.36883 113.8771,-31.52971 135.5134,-28.47529 171.2272,-40.45546 153.4162,-51.46333 -11.8142,-7.30154 -100.3407,-1.83353 -232.8654,14.38339 -30.5879,3.74301 -55.6144,2.59529 -55.6144,-2.55049 0,-5.14578 48.9207,-29.75124 108.7125,-54.67878 192.2884,-80.16607 198.2008,-103.40392 12.3984,-48.73045 -69.3222,20.39848 -132.2746,37.08815 -139.8944,37.08815 -7.6198,0 -27.8692,-10.3619 -44.999,-23.02646 -30.4521,-22.5142 -34.2526,-22.75007 -170.8374,-10.6025 -76.8308,6.83317 -142.1389,9.97755 -145.1289,6.98752 -4.5831,-4.58308 19.5603,-155.55749 37.6668,-235.54076 2.9677,-13.10911 0.4545,-23.83475 -5.5847,-23.83475 -10.6213,0 -17.5611,16.63137 -80.6693,193.32627 -22.5999,63.27668 -33.9325,82.09746 -49.4336,82.09746 -25.115,0 -25.3418,4.82994 6.3713,-135.65756 49.0863,-217.44915 27.2328,-213.65929 -47.9495,8.31548 l -47.3895,139.91644 -55.91,37.312 c -66.3646,44.28892 -120.0901,107.04248 -153.0013,178.71172 -21.1088,45.96776 -23.851,68.38302 -23.2238,189.83413 0.6345,122.86007 6.2843,163.98817 52.3869,381.35597 46.3008,218.3017 51.7254,257.968 52.1527,381.3559 0.41,118.4229 -2.6435,144.3888 -21.8015,185.3813 -48.907,104.6473 -123.3144,147.7199 -255.79363,148.0725 l -87.39407,0.2326 -0.16218,-71.5042 c -0.23517,-103.6453 -11.96302,-114.5733 -59.68575,-55.6144 -21.22165,26.2182 -92.33044,100.9023 -158.01952,165.9647 l -119.43469,118.2954 49.47735,5.7271 c 27.21255,3.15 82.84601,8.5462 123.6299,11.9916 40.7839,3.4453 148.04026,15.4406 238.34746,26.6559 90.30723,11.2154 178.49573,22.1427 195.97453,24.283 51.2273,6.2728 176.7698,-5.379 219.9782,-20.4165 z m -900.62928,-96.2606 c 124.2585,-65.296 298.78959,-255.7015 384.04093,-418.9713 17.47881,-33.4747 35.17113,-60.8744 39.31627,-60.8882 13.23094,-0.042 30.18402,81.8787 39.76159,192.1412 5.11236,58.8565 13.246,110.774 18.07476,115.3723 15.95172,15.1905 121.02203,-9.1871 156.61753,-36.3371 58.1663,-44.3656 69.3231,-82.1735 69.3231,-234.9211 0,-120.3476 -5.8554,-164.2893 -52.9661,-397.4832 -72.5337,-359.03555 -72.1389,-470.49927 2.2014,-621.52709 17.9807,-36.52894 29.9402,-69.16809 26.5769,-72.53145 -8.6205,-8.62042 -165.94018,71.64153 -249.80236,127.44504 -38.65925,25.72461 -98.7443,72.65593 -133.52234,104.29184 l -63.2328,57.51983 53.41058,55.98986 c 46.96797,49.23613 56.06489,54.56932 75.41542,44.21323 28.21637,-15.10095 32.14739,-5.2391 41.20526,103.37264 7.28221,87.3198 -1.10206,164.4663 -16.81852,154.7531 -5.09227,-3.1473 -30.90089,-34.5127 -57.35249,-69.7012 -38.21044,-50.831 -46.89609,-69.9675 -42.26554,-93.1203 4.59235,-22.9617 -2.51793,-39.1312 -33.52988,-76.25006 -21.64699,-25.90977 -47.08147,-47.10865 -56.52107,-47.10865 -18.67403,0 -101.60162,132.01791 -138.10946,219.86551 l -21.94571,52.8073 39.66648,36.6691 c 44.62828,41.2562 90.9846,68.2941 110.02876,64.1758 17.80791,-3.8511 39.09322,70.7949 39.99333,140.2535 0.79905,61.6588 -15.61466,137.7118 -29.72082,137.7118 -4.62645,0 -21.92595,-24.83 -38.44332,-55.1779 -21.86249,-40.1686 -29.39026,-67.5673 -27.67393,-100.7243 2.09483,-40.4688 -2.12577,-49.7317 -37.85961,-83.0895 -71.1895,-66.4559 -67.8517,-67.9092 -118.87751,51.7597 -55.86633,131.0213 -125.76238,256.3813 -188.92083,338.8333 -25.93484,33.8574 -44.63817,64.075 -41.56296,67.1502 3.07521,3.0752 60.60683,-6.7503 127.84805,-21.8343 67.24122,-15.0841 124.81496,-27.4256 127.94163,-27.4256 22.29503,0 -29.6334,215.781 -77.14542,320.5665 -39.02411,86.0658 -32.77506,88.7541 74.84868,32.1995 z M 1915.0648,1875.56 c 57.9174,-24.2464 109.8752,-91.8924 124.5267,-162.1263 15.7071,-75.2943 7.7251,-224.2244 -17.8878,-333.7551 l -18.1864,-77.7719 -13.971,94.412 c -15.7272,106.2792 -36.0598,148.9219 -87.5543,183.624 -105.5334,71.119 -267.5766,-13.3977 -354.0736,-184.6736 -24.4267,-48.3682 -39.3331,-53.8853 -31.8593,-11.7915 57.6213,324.5348 172.2054,506.0756 319.5565,506.2876 24.9488,0.032 60.7009,-6.3565 79.4492,-14.2052 z"
     id="path832"
     inkscape:connector-curvature="0"
     transform="scale(0.0771024)" />
</svg>
